<svg viewBox = "0 0 160 53" width="160" height="53" xmlns="http://www.w3.org/2000/svg"><g transform="matrix(1 0 0 1 80 26.5)"  ><g style=""   ><g transform="matrix(1 0 0 1 -8.21 -1.6)"  ><path style="stroke: none; stroke-width: 1; stroke-dasharray: none; stroke-linecap: butt; stroke-dashoffset: 0; stroke-linejoin: miter; stroke-miterlimit: 4; fill: rgb(23,26,31); fill-rule: nonzero; opacity: 1;"  transform=" translate(-71.79, -24.9)" d="M 70.7447 33.5376 L 79.5799 33.5376 C 79.5799 36.413 77.2489 38.744 74.3735 38.744 L 64 38.744 L 64 17.7999 C 64 14.0749 67.0197 11.0552 70.7447 11.0552 L 70.7447 33.5376 Z" stroke-linecap="round" /></g><g transform="matrix(1 0 0 1 11.92 1.24)"  ><path style="stroke: none; stroke-width: 1; stroke-dasharray: none; stroke-linecap: butt; stroke-dashoffset: 0; stroke-linejoin: miter; stroke-miterlimit: 4; fill: rgb(23,26,31); fill-rule: nonzero; opacity: 1;"  transform=" translate(-91.92, -27.74)" d="M 91.839 39.0596 C 89.6828 39.0596 87.7369 38.5994 86.0014 37.6791 C 84.2923 36.7587 82.9381 35.444 81.9388 33.7348 C 80.9659 32.0256 80.4795 30.0272 80.4795 27.7395 C 80.4795 25.4781 80.9791 23.4928 81.9783 21.7836 C 82.9775 20.0481 84.3448 18.7202 86.0803 17.7999 C 87.8158 16.8796 89.7617 16.4194 91.9179 16.4194 C 94.0741 16.4194 96.0199 16.8796 97.7554 17.7999 C 99.4909 18.7202 100.858 20.0481 101.857 21.7836 C 102.857 23.4928 103.356 25.4781 103.356 27.7395 C 103.356 30.0009 102.844 31.9993 101.818 33.7348 C 100.819 35.444 99.4383 36.7587 97.6765 37.6791 C 95.941 38.5994 93.9952 39.0596 91.839 39.0596 Z M 91.839 33.222 C 93.1274 33.222 94.2187 32.7487 95.1127 31.8021 C 96.0331 30.8555 96.4932 29.5013 96.4932 27.7395 C 96.4932 25.9777 96.0462 24.6235 95.1522 23.6769 C 94.2844 22.7302 93.2063 22.2569 91.9179 22.2569 C 90.6031 22.2569 89.5119 22.7302 88.6441 23.6769 C 87.7764 24.5972 87.3425 25.9514 87.3425 27.7395 C 87.3425 29.5013 87.7632 30.8555 88.6047 31.8021 C 89.4724 32.7487 90.5505 33.222 91.839 33.222 Z" stroke-linecap="round" /></g><g transform="matrix(1 0 0 1 37.11 6.51)"  ><path style="stroke: none; stroke-width: 1; stroke-dasharray: none; stroke-linecap: butt; stroke-dashoffset: 0; stroke-linejoin: miter; stroke-miterlimit: 4; fill: rgb(23,26,31); fill-rule: nonzero; opacity: 1;"  transform=" translate(-117.11, -33.01)" d="M 115.201 16.4194 C 116.753 16.4194 118.107 16.7349 119.264 17.366 C 120.447 17.9971 121.354 18.8254 121.985 19.8509 C 121.985 18.13 123.38 16.7349 125.101 16.7349 L 128.73 16.7349 L 128.73 38.7046 C 128.73 40.7293 128.322 42.5568 127.507 44.1871 C 126.718 45.8437 125.496 47.1585 123.839 48.1314 C 122.209 49.1043 120.171 49.5908 117.726 49.5908 C 114.465 49.5908 111.822 48.8151 109.798 47.2637 C 107.773 45.7385 106.616 43.6612 106.327 41.0317 L 112.992 41.0317 C 113.203 41.8731 113.702 42.5305 114.491 43.0038 C 115.28 43.5034 116.253 43.7533 117.41 43.7533 C 118.804 43.7533 119.908 43.3457 120.723 42.5305 C 121.565 41.7417 121.985 40.4664 121.985 38.7046 L 121.985 35.5886 C 121.328 36.6141 120.421 37.4556 119.264 38.1129 C 118.107 38.744 116.753 39.0596 115.201 39.0596 C 113.387 39.0596 111.743 38.5994 110.271 37.6791 C 108.798 36.7324 107.628 35.4045 106.76 33.6953 C 105.919 31.9599 105.498 29.9614 105.498 27.7 C 105.498 25.4386 105.919 23.4534 106.76 21.7442 C 107.628 20.035 108.798 18.7202 110.271 17.7999 C 111.743 16.8796 113.387 16.4194 115.201 16.4194 Z M 121.985 27.7395 C 121.985 26.0566 121.512 24.7287 120.565 23.7558 C 119.645 22.7828 118.514 22.2964 117.173 22.2964 C 115.832 22.2964 114.688 22.7828 113.742 23.7558 C 112.821 24.7024 112.361 26.0171 112.361 27.7 C 112.361 29.3829 112.821 30.724 113.742 31.7232 C 114.688 32.6961 115.832 33.1826 117.173 33.1826 C 118.514 33.1826 119.645 32.6961 120.565 31.7232 C 121.512 30.7503 121.985 29.4224 121.985 27.7395 Z" stroke-linecap="round" /></g><g transform="matrix(1 0 0 1 62.44 1.24)"  ><path style="stroke: none; stroke-width: 1; stroke-dasharray: none; stroke-linecap: butt; stroke-dashoffset: 0; stroke-linejoin: miter; stroke-miterlimit: 4; fill: rgb(23,26,31); fill-rule: nonzero; opacity: 1;"  transform=" translate(-142.44, -27.74)" d="M 142.358 39.0596 C 140.202 39.0596 138.256 38.5994 136.52 37.6791 C 134.811 36.7587 133.457 35.444 132.458 33.7348 C 131.485 32.0256 130.998 30.0272 130.998 27.7395 C 130.998 25.4781 131.498 23.4928 132.497 21.7836 C 133.496 20.0481 134.864 18.7202 136.599 17.7999 C 138.335 16.8796 140.281 16.4194 142.437 16.4194 C 144.593 16.4194 146.539 16.8796 148.274 17.7999 C 150.01 18.7202 151.377 20.0481 152.376 21.7836 C 153.376 23.4928 153.875 25.4781 153.875 27.7395 C 153.875 30.0009 153.362 31.9993 152.337 33.7348 C 151.338 35.444 149.957 36.7587 148.195 37.6791 C 146.46 38.5994 144.514 39.0596 142.358 39.0596 Z M 142.358 33.222 C 143.646 33.222 144.738 32.7487 145.632 31.8021 C 146.552 30.8555 147.012 29.5013 147.012 27.7395 C 147.012 25.9777 146.565 24.6235 145.671 23.6769 C 144.803 22.7302 143.725 22.2569 142.437 22.2569 C 141.122 22.2569 140.031 22.7302 139.163 23.6769 C 138.295 24.5972 137.861 25.9514 137.861 27.7395 C 137.861 29.5013 138.282 30.8555 139.124 31.8021 C 139.991 32.7487 141.069 33.222 142.358 33.222 Z" stroke-linecap="round" /></g><g transform="matrix(1 0 0 1 -42 -11.76)"  ><path style="stroke: none; stroke-width: 1; stroke-dasharray: none; stroke-linecap: butt; stroke-dashoffset: 0; stroke-linejoin: miter; stroke-miterlimit: 4; fill: rgb(43,128,255); fill-rule: nonzero; opacity: 1;"  transform=" translate(-38, -14.74)" d="M 38 24.7441 C 43.5228 24.7441 48 20.267 48 14.7441 C 48 9.22129 43.5228 4.74414 38 4.74414 C 32.4772 4.74414 28 9.22129 28 14.7441 C 28 20.267 32.4772 24.7441 38 24.7441 Z" stroke-linecap="round" /></g><g transform="matrix(1 0 0 1 -42 12.24)"  ><path style="stroke: none; stroke-width: 1; stroke-dasharray: none; stroke-linecap: butt; stroke-dashoffset: 0; stroke-linejoin: miter; stroke-miterlimit: 4; fill: rgb(255,196,21); fill-rule: nonzero; opacity: 1;"  transform=" translate(-38, -38.74)" d="M 38 48.7441 C 43.5228 48.7441 48 44.267 48 38.7441 C 48 33.2213 43.5228 28.7441 38 28.7441 C 32.4772 28.7441 28 33.2213 28 38.7441 C 28 44.267 32.4772 48.7441 38 48.7441 Z" stroke-linecap="round" /></g><g transform="matrix(1 0 0 1 -66.5 0.24)"  ><path style="stroke: none; stroke-width: 1; stroke-dasharray: none; stroke-linecap: butt; stroke-dashoffset: 0; stroke-linejoin: miter; stroke-miterlimit: 4; fill: rgb(244,75,135); fill-rule: nonzero; opacity: 1;"  transform=" translate(-13.5, -26.74)" d="M 5 21.7441 C 5 12.3553 12.6112 4.74414 22 4.74414 L 22 31.7441 C 22 41.133 14.3888 48.7441 5 48.7441 L 5 21.7441 Z" stroke-linecap="round" /></g></g></g></svg>